<svg width="485" height="336" viewBox="0 0 485 336" fill="none" xmlns="http://www.w3.org/2000/svg">
<path d="M396.818 -10L286.591 74.3902V260.049L396.818 184.098V-10ZM0 74.3902V321.654C0 325.873 5.51136 330.093 11.0227 330.093C13.2273 330.093 14.3295 329.249 16.5341 329.249C46.2955 318.278 89.2841 310.683 121.25 310.683C164.239 310.683 210.534 317.434 242.5 336V74.3902C210.534 55.8244 164.239 49.0732 121.25 49.0732C78.2614 49.0732 31.9659 55.8244 0 74.3902ZM485 302.244V74.3902C471.773 66.7951 457.443 61.7317 440.909 57.5122V285.366C416.659 279.459 390.205 276.927 363.75 276.927C326.273 276.927 272.261 287.898 242.5 302.244V336C272.261 321.654 326.273 310.683 363.75 310.683C400.125 310.683 437.602 315.746 468.466 328.405C470.67 329.249 471.773 329.249 473.977 329.249C479.489 329.249 485 325.029 485 320.81V302.244Z" fill="url(#paint0_linear)"/>
<defs>
<linearGradient id="paint0_linear" x1="242.5" y1="-10" x2="242.5" y2="336" gradientUnits="userSpaceOnUse">
<stop stop-color="#2627CC" stop-opacity="0.7"/>
<stop offset="0.9997" stop-color="#351D01" stop-opacity="0.20625"/>
<stop offset="0.9998" stop-color="#502C02" stop-opacity="0.312669"/>
<stop offset="0.9999" stop-color="#6C3C02" stop-opacity="0.425"/>
<stop offset="1" stop-opacity="0"/>
<stop offset="1" stop-color="#828587" stop-opacity="0"/>
</linearGradient>
</defs>
</svg>




