<svg width="100" height="100" viewBox="0 0 100 100" fill="none" xmlns="http://www.w3.org/2000/svg">
<path d="M79.1667 7.14287L58.3333 27.9762V73.8095L79.1667 55.0595V7.14287ZM4.16666 27.9762V89.0179C4.16666 90.0595 5.20832 91.1012 6.24999 91.1012C6.66666 91.1012 6.87499 90.8929 7.29166 90.8929C12.9167 88.1845 21.0417 86.3095 27.0833 86.3095C35.2083 86.3095 43.9583 87.9762 50 92.5595V27.9762C43.9583 23.3929 35.2083 21.7262 27.0833 21.7262C18.9583 21.7262 10.2083 23.3929 4.16666 27.9762ZM95.8333 84.2262V27.9762C93.3333 26.1012 90.625 24.8512 87.5 23.8095V80.0595C82.9167 78.6012 77.9167 77.9762 72.9167 77.9762C65.8333 77.9762 55.625 80.6845 50 84.2262V92.5595C55.625 89.0179 65.8333 86.3095 72.9167 86.3095C79.7917 86.3095 86.875 87.5595 92.7083 90.6845C93.125 90.8929 93.3333 90.8929 93.75 90.8929C94.7917 90.8929 95.8333 89.8512 95.8333 88.8095V84.2262Z" fill="#1010C7"/>
</svg>

